<svg width="31" height="25" viewBox="0 0 31 25" fill="none" xmlns="http://www.w3.org/2000/svg">
<path d="M6.50913 14.1962C8.51973 16.2068 10.336 18.019 12.1501 19.8332C12.4218 20.1049 12.706 20.364 12.9548 20.6525C13.7469 21.5679 13.7301 22.776 12.9318 23.5724C12.1104 24.3917 10.9253 24.4335 10.0204 23.6058C9.17391 22.8304 8.38388 21.9922 7.57295 21.1813C5.50383 19.1142 3.43262 17.0512 1.37186 14.9758C-0.465266 13.126 -0.456906 11.0652 1.39485 9.20709C4.14741 6.44397 6.90414 3.68713 9.66506 0.934468C10.8104 -0.206727 12.0268 -0.304961 12.9548 0.652305C13.843 1.56986 13.7343 2.76958 12.6433 3.87106C10.9024 5.62466 9.14883 7.3678 7.40575 9.1193C7.16958 9.35549 6.95221 9.60839 6.58019 10.0097H7.88018C14.6686 10.0097 21.457 10.0097 28.2474 10.0097C28.5609 10.0097 28.8786 9.99088 29.1858 10.0327C30.2538 10.1769 31.0042 11.0506 31 12.1144C30.9937 13.1741 30.2329 14.054 29.1608 14.1711C28.6445 14.2275 28.1178 14.1941 27.5953 14.1941C20.669 14.1941 13.7427 14.1941 6.51331 14.1941L6.50913 14.1962Z" fill="white"/>
</svg>
