<svg width="42" height="35" viewBox="0 0 42 35" fill="none" xmlns="http://www.w3.org/2000/svg">
<path d="M0.00162011 31.6745C0.112597 31.4485 0.200083 31.2071 0.337792 30.9989C0.736338 30.3962 1.30418 30.0706 2.03242 30.0552C2.52898 30.0447 3.02555 30.0536 3.56909 30.0536C3.56909 29.8608 3.56909 29.7028 3.56909 29.5457C3.56909 25.5505 3.56909 21.5545 3.56909 17.5593C3.56909 15.9505 4.46744 15.0449 6.06648 15.0425C7.65905 15.04 9.25242 15.0425 10.845 15.0425C10.9916 15.0425 11.1374 15.0425 11.3424 15.0425V14.5443C11.3424 10.5216 11.3424 6.49885 11.3424 2.47694C11.3432 0.928928 12.265 0.00141759 13.8049 0.000607539C18.1112 -0.000202513 22.4166 -0.000202513 26.7228 0.000607539C28.2125 0.000607539 29.1562 0.938649 29.1595 2.42104C29.1627 4.04115 29.1603 5.66045 29.1595 7.28055C29.1595 7.37533 29.1643 7.47091 29.1506 7.56326C29.0995 7.90429 28.8338 8.13192 28.5066 8.10194C28.1623 8.07116 27.9582 7.86946 27.946 7.52519C27.9282 7.02619 27.9387 6.52639 27.9387 6.0274C27.9387 4.82609 27.942 3.62478 27.9371 2.42348C27.9339 1.63286 27.5264 1.22622 26.739 1.22217C25.8221 1.21731 24.9043 1.22136 23.9371 1.22136C23.9298 1.38175 23.9176 1.52351 23.9168 1.66527C23.9136 2.28577 23.9281 2.90789 23.9079 3.52758C23.8844 4.26635 23.3247 4.84715 22.5932 4.85525C20.9601 4.87307 19.3262 4.87388 17.6932 4.85363C16.9398 4.84472 16.3833 4.22665 16.3704 3.44009C16.359 2.71509 16.3679 1.98929 16.3679 1.23432C15.3724 1.23432 14.4173 1.20921 13.4647 1.24485C12.9787 1.26348 12.6368 1.66527 12.572 2.1513C12.5599 2.24445 12.5615 2.34004 12.5615 2.43401C12.5615 6.51019 12.5615 10.5872 12.5615 14.6634C12.5615 14.7695 12.5712 14.8764 12.5793 15.0392H13.0629C14.9795 15.0392 16.8969 15.0506 18.8135 15.0336C19.5466 15.0271 20.2051 15.1737 20.7681 15.7424C21.4413 15.0182 22.3145 15.0247 23.2015 15.0352C24.6183 15.0522 26.0359 15.04 27.4535 15.04C27.5985 15.04 27.7435 15.04 27.9387 15.04C27.9387 14.8505 27.9387 14.7071 27.9387 14.5637C27.9387 13.2271 27.9387 11.8914 27.9403 10.5548C27.9411 10.0445 28.1582 9.77551 28.5535 9.77956C28.944 9.78361 29.1587 10.0582 29.1595 10.5686C29.1611 12.0388 29.1595 13.509 29.1595 15.04C29.3393 15.04 29.4956 15.04 29.6528 15.04C31.5564 15.04 33.4608 15.0919 35.362 15.0247C37.0834 14.9639 38.0158 16.1782 37.998 17.6436C37.951 21.5982 37.9818 25.5537 37.9818 29.5084C37.9818 29.6696 37.9818 29.83 37.9818 30.0503C38.4022 30.0503 38.8015 30.0503 39.2009 30.0503C40.3576 30.0528 41.0024 30.5031 41.4034 31.5846C41.4156 31.6186 41.4504 31.6437 41.4747 31.6729V32.4829C40.9506 33.7587 40.3917 34.1832 39.2211 34.1832C26.8978 34.1832 14.5753 34.1832 2.25195 34.1816C2.05105 34.1816 1.8453 34.1743 1.64927 34.133C0.746059 33.9402 0.258407 33.3246 0 32.4829C0 32.2132 0 31.9426 0 31.6729L0.00162011 31.6745ZM4.78984 30.0511C6.69023 30.0511 8.5258 30.0511 10.3614 30.0511C10.4967 30.0511 10.6344 30.0374 10.7656 30.0609C11.1018 30.1224 11.2921 30.3322 11.284 30.6789C11.2767 31.0062 11.0888 31.203 10.7705 31.2605C10.6392 31.284 10.5015 31.2711 10.3662 31.2711C7.70684 31.2711 5.04744 31.2711 2.38804 31.2711C1.64198 31.2711 1.23857 31.5595 1.22561 32.0981C1.21265 32.653 1.62983 32.9625 2.3929 32.9625C14.6239 32.9625 26.8549 32.9625 39.0867 32.9625C39.2349 32.9625 39.3856 32.9698 39.5306 32.9454C39.9575 32.8734 40.2629 32.5048 40.2515 32.0957C40.2402 31.6826 39.9202 31.3334 39.4901 31.2816C39.3305 31.2622 39.1669 31.2719 39.0048 31.2719C30.6216 31.2719 22.2376 31.2719 13.8543 31.2719C13.7061 31.2719 13.5546 31.2865 13.4096 31.2614C13.0921 31.2063 12.8985 31.007 12.8887 30.6838C12.879 30.3403 13.0726 30.1289 13.4072 30.0625C13.5246 30.039 13.6494 30.0519 13.7709 30.0519C15.7555 30.0519 17.7402 30.0519 19.7248 30.0519C19.8657 30.0519 20.0075 30.0519 20.1355 30.0519C20.1541 29.9588 20.1638 29.9329 20.1638 29.9069C20.1655 25.7222 20.1671 21.5367 20.1638 17.3519C20.1638 17.2069 20.1347 17.053 20.082 16.9186C19.9443 16.5662 19.6802 16.3037 19.3044 16.294C18.2691 16.2657 17.2323 16.2843 16.2108 16.2843C16.1832 16.3353 16.1597 16.3588 16.1597 16.3823C16.1541 17.0166 16.15 17.6508 16.1468 18.2851C16.1411 19.3763 15.6202 19.9012 14.5332 19.902C13.1423 19.9044 11.7522 19.902 10.3614 19.902C9.09122 19.902 8.5979 19.4095 8.5979 18.1417C8.5979 17.5261 8.5979 16.9105 8.5979 16.2689C7.73195 16.2689 6.92352 16.2689 6.1159 16.2689C5.1487 16.2697 4.79065 16.6221 4.79065 17.5771C4.79065 21.5869 4.79065 25.5958 4.79065 29.6056C4.79065 29.7376 4.79065 29.8697 4.79065 30.0511H4.78984ZM36.7408 30.0366C36.748 29.8826 36.7594 29.7644 36.7594 29.6461C36.7602 25.6112 36.7602 21.5764 36.7594 17.5415C36.7594 17.3941 36.7529 17.2434 36.7237 17.0992C36.6387 16.6715 36.3268 16.3086 35.9234 16.2964C34.876 16.2657 33.8278 16.2859 32.7383 16.2859C32.7383 16.9874 32.7399 17.6589 32.7383 18.3297C32.735 19.3544 32.1915 19.8979 31.1603 19.9004C29.716 19.9036 28.2725 19.9028 26.8281 19.9004C25.7224 19.8996 25.1951 19.369 25.1943 18.2608C25.1943 17.6047 25.1943 16.9485 25.1943 16.2681C24.304 16.2681 23.4688 16.2665 22.6337 16.2681C21.7523 16.2705 21.3886 16.6391 21.3886 17.5285C21.3886 21.5634 21.3886 25.5983 21.3886 29.6331C21.3886 29.7628 21.4008 29.8932 21.4081 30.0357H36.7416L36.7408 30.0366ZM17.5927 1.24566C17.5927 1.97876 17.583 2.68998 17.6057 3.4004C17.6081 3.48464 17.7928 3.63207 17.8941 3.63288C19.3902 3.64827 20.8872 3.64665 22.3842 3.63531C22.4854 3.63531 22.6709 3.51948 22.6726 3.45386C22.6936 2.71914 22.6855 1.98362 22.6855 1.24566H17.5919H17.5927ZM26.4142 16.2867C26.4142 17.0085 26.4191 17.6816 26.411 18.3548C26.4085 18.584 26.5082 18.6683 26.7253 18.6675C28.2222 18.665 29.72 18.6707 31.217 18.6561C31.3166 18.6553 31.4989 18.5095 31.5013 18.4269C31.524 17.7173 31.5143 17.0077 31.5143 16.2867H26.4142ZM9.82594 16.2891C9.82594 17.019 9.81622 17.7294 9.83971 18.4382C9.84214 18.5176 10.0349 18.6553 10.1402 18.6561C11.6356 18.6707 13.131 18.6691 14.6263 18.6569C14.7235 18.6569 14.9017 18.5346 14.9042 18.4649C14.9244 17.7432 14.9171 17.0214 14.9171 16.2883H9.82675L9.82594 16.2891Z" fill="#5A5A5A"/>
</svg>
