<svg width="32" height="32" viewBox="0 0 32 32" fill="none" xmlns="http://www.w3.org/2000/svg">
<path d="M0 29.7606C0 22.6119 0 15.4631 0 8.31442C0.512763 6.93733 1.04416 6.57281 2.53789 6.57281C6.21472 6.57281 9.89236 6.57281 13.5692 6.57281C13.6956 6.57281 13.8211 6.57281 13.9661 6.57281C13.9661 6.23826 13.9572 5.95555 13.9694 5.67365C13.9775 5.48734 13.9199 5.41767 13.7247 5.38365C12.8248 5.22407 11.9539 4.97214 11.2055 4.41483C10.0576 3.55941 10.0528 2.28601 11.2354 1.47838C11.7028 1.15922 12.2423 0.912968 12.7834 0.746097C13.4137 0.550875 14.0828 0.47959 14.734 0.355652C15.2598 0.355652 15.7847 0.355652 16.3104 0.355652C16.875 0.455288 17.4461 0.526573 18.0026 0.661042C18.8353 0.861935 19.6211 1.18434 20.2213 1.83076C20.8597 2.5193 20.8678 3.3974 20.2132 4.06002C19.9273 4.34921 19.5846 4.62382 19.2153 4.77854C18.5964 5.03695 17.9346 5.19086 17.2938 5.39742C17.2144 5.42253 17.0945 5.49544 17.0913 5.55214C17.0719 5.88102 17.0816 6.21233 17.0816 6.57362H17.5052C21.2525 6.57362 25.0007 6.57362 28.748 6.57362C30.2036 6.57362 31.0445 7.41607 31.0445 8.87012C31.0445 13.1715 31.0445 17.4729 31.0445 21.7751C31.0445 24.2951 31.0477 26.8152 31.0428 29.3353C31.0412 30.2158 30.637 30.863 29.8537 31.2616C29.6763 31.3523 29.4754 31.3969 29.2858 31.4625H1.75862C1.11949 31.3037 0.587288 30.9886 0.264077 30.3924C0.15634 30.1931 0.0866756 29.972 0 29.7614L0 29.7606ZM15.4963 30.4264C19.9224 30.4264 24.3478 30.4264 28.7739 30.4264C29.6252 30.4264 30.0125 30.0376 30.0125 29.1822C30.0125 22.4093 30.0125 15.6357 30.0125 8.86283C30.0125 8.00336 29.6301 7.6121 28.7812 7.6121C19.9394 7.6121 11.0977 7.6121 2.256 7.6121C1.42245 7.6121 1.03282 8.00579 1.03282 8.84014C1.03282 15.6235 1.03282 22.4069 1.03282 29.1903C1.03282 30.0417 1.42083 30.4264 2.27868 30.4264C6.68455 30.4264 11.0896 30.4264 15.4955 30.4264H15.4963ZM17.0792 4.36865C17.2363 4.34111 17.3465 4.32653 17.4534 4.30142C18.0958 4.15318 18.726 3.96687 19.259 3.55698C19.788 3.15033 19.7936 2.75584 19.2631 2.3581C19.0314 2.18394 18.7722 2.03327 18.504 1.92553C16.986 1.32042 15.4161 1.2702 13.8268 1.54886C13.0864 1.67847 12.3695 1.89232 11.7644 2.36701C11.2662 2.75827 11.2605 3.14061 11.7571 3.53106C12.3938 4.03086 13.1512 4.22365 13.9669 4.37108C13.9669 3.93527 13.9637 3.53268 13.9677 3.13008C13.9726 2.67402 14.1314 2.49176 14.5801 2.48042C15.2047 2.46503 15.8309 2.46422 16.4554 2.48042C16.9204 2.49257 17.0743 2.67321 17.0783 3.15033C17.0816 3.54321 17.0783 3.93608 17.0783 4.36865H17.0792ZM15.0038 6.54689H16.0415V4.22365C16.0415 3.67768 15.7688 3.42602 15.2233 3.46868C15.2136 3.46868 15.199 3.46463 15.1942 3.4703C15.1302 3.53673 15.0127 3.60396 15.0119 3.67201C14.9997 4.61977 15.0038 5.56753 15.0038 6.54689Z" fill="#5A5A5A"/>
<path d="M15.5109 25.2445C11.4388 25.2445 7.36743 25.2445 3.2953 25.2445C2.6108 25.2445 2.19444 24.9472 2.0867 24.381C2.06645 24.2725 2.06726 24.1599 2.06726 24.0489C2.06645 19.3109 2.06645 14.5729 2.06726 9.83489C2.06726 9.05886 2.46661 8.65383 3.24345 8.65383C11.4274 8.65221 19.6122 8.65221 27.7962 8.65383C28.586 8.65383 28.9796 9.05886 28.9796 9.85838C28.9796 14.5656 28.9796 19.2736 28.9796 23.9808C28.9796 24.8557 28.5949 25.2445 27.7273 25.2445C23.6552 25.2445 19.5838 25.2445 15.5117 25.2445H15.5109ZM9.91343 24.1898C9.92882 24.1299 9.94421 24.0829 9.95393 24.0343C10.2561 22.5276 10.559 21.0209 10.858 19.5142C10.9989 18.8022 11.3456 18.5081 12.069 18.5065C13.1804 18.5041 14.2918 18.5065 15.4032 18.5065C17.6567 18.5065 19.9095 18.5033 22.163 18.5081C22.9334 18.5097 23.3789 19.0533 23.2347 19.8058C23.0833 20.6005 22.9213 21.3927 22.7641 22.1858C22.6329 22.8476 22.5025 23.5086 22.3656 24.2052C22.965 24.2052 23.5296 24.189 24.0926 24.2125C24.351 24.223 24.4361 24.1331 24.4822 23.8901C24.7617 22.4304 25.059 20.9747 25.3466 19.5166C25.4867 18.8038 25.8326 18.5097 26.5543 18.5065C27.0064 18.5049 27.4584 18.5065 27.9241 18.5065V16.4295C27.7832 16.4295 27.6633 16.4295 27.5434 16.4295C25.7548 16.4295 23.9662 16.4328 22.1776 16.4279C21.34 16.4255 20.8969 15.8682 21.063 15.0484C21.2096 14.325 21.3554 13.6016 21.4996 12.8783C21.7086 11.8292 21.916 10.7802 22.1282 9.71338H20.0869C20.0577 9.85109 20.0318 9.96936 20.0083 10.0876C19.6503 11.8714 19.2955 13.6567 18.9342 15.4396C18.7908 16.146 18.4514 16.4247 17.7385 16.4287C16.8491 16.4336 15.9605 16.4303 15.071 16.4295C14.3128 16.4295 13.5554 16.4392 12.7972 16.4263C12.0317 16.4125 11.5943 15.8536 11.7433 15.1059C11.988 13.8762 12.235 12.6474 12.4797 11.4177C12.5915 10.8564 12.6984 10.2942 12.815 9.69394C12.1508 9.69394 11.5271 9.68827 10.9033 9.70285C10.845 9.70447 10.7551 9.82193 10.7373 9.89807C10.6344 10.3517 10.5526 10.8094 10.4562 11.2646C10.2966 12.0156 9.97904 12.2748 9.22083 12.2748C7.30101 12.2756 5.38118 12.2748 3.46136 12.2748C3.34633 12.2748 3.23049 12.2748 3.12114 12.2748V14.3493C3.26128 14.3493 3.38116 14.3493 3.50105 14.3493C5.13817 14.3493 6.77528 14.3477 8.41159 14.3493C9.30427 14.3509 9.74008 14.8977 9.55944 15.7782C9.44522 16.3331 9.33181 16.8872 9.22326 17.4429C9.07016 18.2246 8.73318 18.5049 7.93042 18.5049C6.44478 18.5049 4.95996 18.5049 3.47432 18.5049H3.12762V20.5778C4.43747 20.5778 5.72222 20.6216 7.00291 20.564C7.98712 20.5195 8.59304 21.1165 8.28522 22.1615C8.27955 22.1809 8.27307 22.2003 8.26902 22.2198C8.14103 22.8711 8.01224 23.5232 7.88182 24.189H9.91424L9.91343 24.1898ZM11.9062 19.5571C11.5967 21.1133 11.2921 22.6426 10.9851 24.1817C11.0694 24.1931 11.1091 24.2036 11.1479 24.2036C14.4611 24.2044 17.7734 24.2036 21.0865 24.2085C21.2671 24.2085 21.323 24.1396 21.3546 23.9687C21.5255 23.0655 21.7118 22.1647 21.8917 21.2631C22.0043 20.7017 22.1153 20.1396 22.2303 19.558H11.9045L11.9062 19.5571ZM27.9266 15.37V9.69151H27.5823C26.2392 9.69151 24.8962 9.70123 23.5531 9.68341C23.2607 9.67936 23.161 9.76604 23.1068 10.0496C22.7811 11.7563 22.4344 13.4591 22.0966 15.1634C22.0837 15.2274 22.0869 15.2946 22.082 15.3692H27.9258L27.9266 15.37ZM19.02 9.72634C18.9617 9.71257 18.9236 9.69475 18.8856 9.69475C17.28 9.69313 15.6753 9.69475 14.0698 9.68827C13.8657 9.68746 13.8511 9.80816 13.8227 9.95397C13.6089 11.0338 13.3894 12.1128 13.1747 13.1926C13.0313 13.9111 12.892 14.6304 12.7494 15.3603C12.8207 15.3724 12.8588 15.3854 12.8977 15.3854C14.4927 15.387 16.0877 15.3846 17.6835 15.3919C17.8771 15.3927 17.9168 15.2946 17.9467 15.1407C18.099 14.3574 18.2586 13.5757 18.4141 12.7932C18.6166 11.7742 18.8175 10.7551 19.0209 9.72634H19.02ZM8.57117 15.4162H3.11871V17.4502H8.16696C8.30223 16.7722 8.43508 16.1039 8.57198 15.4162H8.57117ZM3.12114 21.6309V24.2036C4.32163 24.2036 5.50107 24.2052 6.68051 24.1979C6.7364 24.1979 6.83118 24.121 6.84252 24.0667C7.01101 23.2599 7.16897 22.4507 7.33179 21.6309H3.12114ZM9.40796 11.2266C9.5084 10.7227 9.60723 10.2245 9.70849 9.71905H3.12276V11.2266H9.40796ZM27.925 24.185V19.5628H26.3939C26.0853 21.1108 25.7799 22.641 25.4721 24.185H27.9241H27.925Z" fill="#5A5A5A"/>
<path d="M2.59451 27.8188C2.59937 26.9594 3.279 26.2846 4.13847 26.2846C5.00522 26.2846 5.70268 26.9861 5.69377 27.8472C5.68486 28.6929 4.98416 29.3887 4.1409 29.3903C3.28143 29.392 2.58965 28.6888 2.59451 27.8188ZM4.65771 27.8399C4.66257 27.5588 4.42604 27.3223 4.13928 27.3223C3.85657 27.3223 3.6411 27.5288 3.63138 27.8099C3.62084 28.0991 3.84199 28.3413 4.12551 28.3502C4.40093 28.3592 4.65285 28.1169 4.65852 27.8391L4.65771 27.8399Z" fill="#5A5A5A"/>
<path d="M9.82584 27.8375C9.82341 28.688 9.13405 29.3839 8.28836 29.3896C7.43375 29.396 6.72819 28.6897 6.729 27.827C6.729 26.9602 7.42646 26.2749 8.29808 26.2838C9.1543 26.2927 9.82827 26.9772 9.82584 27.8367V27.8375ZM8.79221 27.8221C8.78654 27.5329 8.55405 27.3142 8.26081 27.3223C7.98297 27.3304 7.76587 27.5515 7.76344 27.8278C7.76101 28.108 8.00403 28.3535 8.28107 28.3519C8.56053 28.3503 8.79707 28.1048 8.7914 27.8221H8.79221Z" fill="#5A5A5A"/>
<path d="M15.523 27.3199C16.0171 27.3199 16.5113 27.3158 17.0054 27.3215C17.3716 27.3255 17.587 27.5208 17.5862 27.8343C17.5862 28.1405 17.3618 28.3519 17.0038 28.3543C16.0155 28.36 15.0273 28.36 14.039 28.3543C13.6818 28.3519 13.4582 28.1396 13.4582 27.8326C13.4582 27.5191 13.6729 27.3255 14.0406 27.3223C14.5348 27.3174 15.0289 27.3207 15.523 27.3207V27.3199Z" fill="#5A5A5A"/>
</svg>
