<svg width="34" height="43" viewBox="0 0 34 43" fill="none" xmlns="http://www.w3.org/2000/svg">
<path d="M7.37796 0.865753C14.0479 0.865753 20.7179 0.865753 27.3879 0.865753C28.654 1.28455 29.14 2.19019 29.0509 3.4806C29.0169 3.97474 29.0452 4.47373 29.0452 5.00755C29.7508 5.00755 30.4102 5.00026 31.0688 5.00917C32.0416 5.02294 32.8298 5.57783 33.0858 6.46322C33.1741 6.76861 33.196 7.10154 33.196 7.42151C33.2016 15.467 33.2008 23.5132 33.2008 31.5587C33.2008 34.4068 33.2032 37.2558 33.1992 40.1039C33.1976 41.2258 32.684 41.9192 31.618 42.2748C31.5815 42.287 31.5524 42.3178 31.5191 42.3396H5.83886C5.59584 42.2287 5.33582 42.1444 5.11386 42.001C4.46177 41.5798 4.16124 40.9553 4.15476 40.1881C4.14909 39.5328 4.15395 38.8775 4.15395 38.1978C3.48647 38.1978 2.88055 38.1995 2.27463 38.1978C0.862706 38.193 0.00648042 37.3376 0.00648042 35.9256C0.00486032 26.8684 0.00729047 17.8112 0 8.75405C0 8.35955 0.121508 8.0655 0.400976 7.78765C2.49901 5.70582 4.58571 3.61102 6.67807 1.52271C6.90408 1.2967 7.14385 1.08447 7.37796 0.865753ZM1.4103 9.15502C1.40139 9.30812 1.39086 9.40128 1.39086 9.49443C1.39086 18.3078 1.39005 27.122 1.39086 35.9354C1.39086 36.5794 1.64279 36.8159 2.3208 36.8167C10.4602 36.8175 18.5996 36.8175 26.739 36.8167C27.4332 36.8167 27.6584 36.5907 27.6584 35.8916C27.6592 24.9859 27.6592 14.0801 27.6584 3.1744C27.6584 2.45346 27.4422 2.24527 26.7074 2.24527C20.7276 2.24527 14.7478 2.24527 8.76801 2.24527H8.30628C8.30628 2.44779 8.30628 2.5936 8.30628 2.74022C8.30628 4.14404 8.31438 5.54786 8.30385 6.95168C8.29332 8.31176 7.45734 9.14287 6.10051 9.1534C5.12844 9.16069 4.15638 9.15502 3.18513 9.15502C2.60675 9.15502 2.02837 9.15502 1.4103 9.15502ZM29.0452 6.40003V6.98489C29.0452 16.567 29.0461 26.1499 29.042 35.732C29.042 36.0536 29.0347 36.3866 28.9521 36.6936C28.6945 37.6527 27.8844 38.1978 26.7698 38.1978C19.8722 38.1987 12.9754 38.1978 6.07783 38.1978C5.90852 38.1978 5.73922 38.1978 5.53671 38.1978C5.53671 38.8094 5.53671 39.3603 5.53671 39.9111C5.53671 40.769 5.72707 40.9593 6.58168 40.9593C14.5048 40.9593 22.4279 40.9593 30.3511 40.9593C30.5941 40.9593 30.8371 40.9674 31.0801 40.9561C31.5232 40.9366 31.7719 40.6944 31.8124 40.2513C31.8237 40.1306 31.8181 40.0083 31.8181 39.8868C31.8181 29.0758 31.8181 18.2657 31.8181 7.45472C31.8181 7.30648 31.8213 7.15662 31.801 7.01081C31.7524 6.66006 31.5386 6.42191 31.1935 6.40732C30.4969 6.37816 29.7978 6.39841 29.0469 6.39841L29.0452 6.40003ZM2.51359 7.77145C3.69384 7.77145 4.89029 7.77469 6.08674 7.76983C6.68455 7.7674 6.91461 7.53654 6.91785 6.93224C6.92352 5.83948 6.92028 4.74672 6.91866 3.65314C6.91866 3.55189 6.90246 3.45063 6.89598 3.37368C5.44031 4.8342 3.9887 6.29068 2.51359 7.77064V7.77145Z" fill="#5A5A5A"/>
<path d="M12.4423 25.7441C11.1212 25.7441 9.80076 25.7457 8.47957 25.7441C7.92792 25.7433 7.6201 25.4921 7.62091 25.0572C7.62172 24.6262 7.94007 24.3654 8.48362 24.3654C11.139 24.3637 13.7935 24.3629 16.4489 24.3654C17.0054 24.3654 17.3156 24.6562 17.2784 25.1211C17.2468 25.5221 16.9754 25.7416 16.4853 25.7433C15.1374 25.7473 13.7895 25.7449 12.4423 25.7449V25.7441Z" fill="#5A5A5A"/>
<path d="M12.4853 31.9718C11.1511 31.9718 9.81698 31.9734 8.48201 31.9718C7.93766 31.9709 7.62093 31.7133 7.62012 31.2816C7.62012 30.849 7.93442 30.593 8.48039 30.593C11.1357 30.5914 13.7911 30.5914 16.4456 30.593C16.9892 30.593 17.2921 30.8547 17.2808 31.3002C17.2703 31.7271 16.9746 31.9701 16.4473 31.9718C15.1261 31.975 13.8057 31.9726 12.4845 31.9726L12.4853 31.9718Z" fill="#5A5A5A"/>
<path d="M12.431 19.5237C11.1617 19.5237 9.8923 19.5245 8.62376 19.5237C8.47552 19.5237 8.32485 19.5285 8.17985 19.5034C7.8453 19.4443 7.65737 19.2264 7.62739 18.8959C7.59742 18.563 7.75457 18.3135 8.07049 18.2049C8.23169 18.1498 8.41477 18.1434 8.58812 18.1434C11.1673 18.1401 13.7457 18.1409 16.3249 18.1409C16.3922 18.1409 16.4602 18.1385 16.5274 18.1425C17.0102 18.1693 17.2938 18.4398 17.2816 18.8602C17.2695 19.2645 16.9965 19.518 16.5226 19.5213C15.1593 19.5294 13.7951 19.5237 12.4318 19.5245L12.431 19.5237Z" fill="#5A5A5A"/>
<path d="M12.4804 11.9286C13.8032 11.9286 15.1269 11.9302 16.4497 11.927C16.8353 11.9262 17.1496 12.0323 17.2605 12.443C17.3642 12.8262 17.1447 13.1866 16.7567 13.2766C16.6141 13.3098 16.4626 13.3122 16.3152 13.3122C13.7368 13.3138 11.1576 13.3138 8.57921 13.3138C8.51198 13.3138 8.44393 13.3162 8.3767 13.3122C7.90039 13.283 7.60634 13.0011 7.62173 12.5912C7.63631 12.1976 7.92064 11.9359 8.38966 11.9335C9.75298 11.9246 11.1171 11.9302 12.4804 11.9302V11.9286Z" fill="#5A5A5A"/>
<path d="M21.6794 25.305C22.5631 24.1693 23.4194 23.0758 24.2667 21.9765C24.4619 21.723 24.6847 21.5545 25.0192 21.6055C25.5571 21.6882 25.7661 22.2876 25.4024 22.7639C24.6004 23.8153 23.7823 24.8538 22.9706 25.898C22.7389 26.1961 22.5121 26.4991 22.2723 26.7907C21.8997 27.2459 21.4477 27.2524 21.0799 26.8028C20.7899 26.448 20.508 26.0851 20.2359 25.7157C19.9734 25.3585 20.0228 24.947 20.3363 24.7088C20.6344 24.4828 21.0281 24.5403 21.3084 24.8563C21.4234 24.9867 21.5303 25.1244 21.6778 25.305H21.6794Z" fill="#5A5A5A"/>
<path d="M21.6778 31.5295C22.5543 30.4027 23.3999 29.3043 24.2618 28.2196C24.3882 28.0608 24.5737 27.911 24.7625 27.8486C25.0573 27.7506 25.3214 27.8786 25.4915 28.1451C25.6746 28.4326 25.6187 28.7129 25.4202 28.9697C24.794 29.7798 24.1646 30.5866 23.536 31.3942C23.1229 31.9256 22.7146 32.461 22.2926 32.986C21.8924 33.4849 21.455 33.4841 21.0548 32.9892C20.7754 32.6433 20.5 32.2942 20.2383 31.9361C19.9742 31.5757 20.0228 31.1714 20.3371 30.9333C20.6547 30.6927 21.037 30.7567 21.3319 31.1042C21.4356 31.2265 21.5344 31.3537 21.677 31.5311L21.6778 31.5295Z" fill="#5A5A5A"/>
<path d="M21.6761 12.8683C22.5185 11.7861 23.3294 10.7435 24.1419 9.70098C24.2245 9.59487 24.3039 9.48308 24.3987 9.38911C24.6539 9.13719 25.0516 9.11532 25.3189 9.32998C25.5814 9.54059 25.6543 9.89621 25.4809 10.204C25.4023 10.3442 25.2954 10.4689 25.1958 10.5961C24.2521 11.8104 23.3084 13.0246 22.363 14.2373C21.8956 14.8375 21.4558 14.8424 20.994 14.2527C20.7445 13.9343 20.4934 13.6168 20.2528 13.2911C19.9847 12.9282 20.0163 12.5248 20.3193 12.281C20.6408 12.0218 21.037 12.0866 21.3448 12.4527C21.4485 12.5759 21.5465 12.7039 21.6769 12.8675L21.6761 12.8683Z" fill="#5A5A5A"/>
<path d="M21.6786 19.0854C22.4862 18.0478 23.2792 17.0287 24.0723 16.0105C24.1719 15.8833 24.2659 15.7504 24.3744 15.6306C24.649 15.3276 25.0103 15.2847 25.3133 15.5107C25.6308 15.7472 25.6989 16.1263 25.4518 16.4746C25.1634 16.8805 24.8475 17.2677 24.5413 17.6614C23.8049 18.6083 23.0702 19.5553 22.3307 20.4998C21.8981 21.0522 21.4461 21.049 21.0119 20.4957C20.7543 20.1668 20.4935 19.8404 20.2448 19.505C19.9823 19.1502 20.0228 18.7403 20.3306 18.4965C20.6385 18.2527 21.0305 18.3134 21.3294 18.6553C21.4436 18.7865 21.5498 18.925 21.6802 19.0854H21.6786Z" fill="#5A5A5A"/>
<path d="M5.19154 25.7432C4.49571 25.7449 4.16278 25.5253 4.15873 25.0636C4.15468 24.5995 4.49895 24.3637 5.18101 24.3637C5.30252 24.3637 5.42403 24.3572 5.54473 24.3678C5.95218 24.4026 6.24137 24.7023 6.23327 25.0733C6.22436 25.45 5.93436 25.7222 5.51556 25.7424C5.40783 25.7473 5.30009 25.7424 5.19235 25.7424L5.19154 25.7432Z" fill="#5A5A5A"/>
<path d="M5.20861 19.5156C5.07414 19.5156 4.93806 19.5261 4.80521 19.5132C4.43339 19.4775 4.17256 19.2078 4.1604 18.8586C4.14825 18.516 4.3937 18.2106 4.76227 18.162C5.0142 18.1288 5.27342 18.1304 5.52777 18.1466C5.95062 18.1733 6.23171 18.4601 6.23333 18.8343C6.23495 19.2264 5.94252 19.4978 5.49213 19.5213C5.39817 19.5261 5.30339 19.5213 5.20942 19.5213C5.20942 19.5188 5.20942 19.5172 5.20942 19.5148L5.20861 19.5156Z" fill="#5A5A5A"/>
<path d="M5.18918 11.9221C5.33661 11.9294 5.48647 11.9254 5.63228 11.9456C5.98304 11.9951 6.22362 12.2624 6.23334 12.5977C6.24306 12.9266 6.01463 13.2296 5.66712 13.2798C5.39008 13.3195 5.10251 13.3219 4.82223 13.2992C4.42611 13.2676 4.15961 12.9728 4.15961 12.6156C4.15961 12.2413 4.44313 11.9643 4.86516 11.9327C4.97209 11.9246 5.08064 11.9319 5.18837 11.9319C5.18837 11.9286 5.18837 11.9254 5.18837 11.9221H5.18918Z" fill="#5A5A5A"/>
<path d="M5.20129 30.5939C5.89307 30.5915 6.23006 30.815 6.23411 31.2743C6.23816 31.7361 5.89388 31.971 5.21263 31.971C5.09112 31.971 4.96961 31.9767 4.84892 31.9677C4.44389 31.9386 4.15065 31.6364 4.15956 31.2646C4.16847 30.9049 4.45118 30.6222 4.83757 30.5947C4.95827 30.5858 5.07978 30.5931 5.20129 30.5931V30.5939Z" fill="#5A5A5A"/>
</svg>
